<svg width="32" height="32" viewBox="0 0 32 32" fill="none" xmlns="http://www.w3.org/2000/svg">
<rect width="32" height="32" rx="8" fill="url(#paint0_linear_149_1851)"/>
<path d="M10 11.75C10 11.5511 10.079 11.3603 10.2197 11.2197C10.3603 11.079 10.5511 11 10.75 11H18.25C18.4489 11 18.6397 11.079 18.7803 11.2197C18.921 11.3603 19 11.5511 19 11.75C19 11.9489 18.921 12.1397 18.7803 12.2803C18.6397 12.421 18.4489 12.5 18.25 12.5H10.75C10.5511 12.5 10.3603 12.421 10.2197 12.2803C10.079 12.1397 10 11.9489 10 11.75ZM10 19.75C10 19.5511 10.079 19.3603 10.2197 19.2197C10.3603 19.079 10.5511 19 10.75 19H17.25C17.4489 19 17.6397 19.079 17.7803 19.2197C17.921 19.3603 18 19.5511 18 19.75C18 19.9489 17.921 20.1397 17.7803 20.2803C17.6397 20.421 17.4489 20.5 17.25 20.5H10.75C10.5511 20.5 10.3603 20.421 10.2197 20.2803C10.079 20.1397 10 19.9489 10 19.75ZM10.75 15C10.5511 15 10.3603 15.079 10.2197 15.2197C10.079 15.3603 10 15.5511 10 15.75C10 15.9489 10.079 16.1397 10.2197 16.2803C10.3603 16.421 10.5511 16.5 10.75 16.5H21.25C21.4489 16.5 21.6397 16.421 21.7803 16.2803C21.921 16.1397 22 15.9489 22 15.75C22 15.5511 21.921 15.3603 21.7803 15.2197C21.6397 15.079 21.4489 15 21.25 15H10.75Z" fill="white"/>
<defs>
<linearGradient id="paint0_linear_149_1851" x1="16" y1="2" x2="34.768" y2="36.1301" gradientUnits="userSpaceOnUse">
<stop stop-color="#1CAC70"/>
<stop offset="1" stop-color="#EDDC46"/>
</linearGradient>
</defs>
</svg>
