<svg width="32" height="32" viewBox="0 0 32 32" fill="none" xmlns="http://www.w3.org/2000/svg">
<rect width="32" height="32" rx="8" fill="url(#paint0_linear_149_1855)"/>
<path d="M22.1426 21.3334V12C22.1426 11.2647 21.5446 10.6667 20.8092 10.6667H19.4759V9.33337H18.1426V10.6667H14.1426V9.33337H12.8092V10.6667H11.4759C10.7406 10.6667 10.1426 11.2647 10.1426 12V21.3334C10.1426 22.0687 10.7406 22.6667 11.4759 22.6667H20.8092C21.5446 22.6667 22.1426 22.0687 22.1426 21.3334ZM14.1426 20H12.8092V18.6667H14.1426V20ZM14.1426 17.3334H12.8092V16H14.1426V17.3334ZM16.8092 20H15.4759V18.6667H16.8092V20ZM16.8092 17.3334H15.4759V16H16.8092V17.3334ZM19.4759 20H18.1426V18.6667H19.4759V20ZM19.4759 17.3334H18.1426V16H19.4759V17.3334ZM20.8092 14H11.4759V12.6667H20.8092V14Z" fill="white"/>
<defs>
<linearGradient id="paint0_linear_149_1855" x1="16" y1="2" x2="34.768" y2="36.1301" gradientUnits="userSpaceOnUse">
<stop stop-color="#1CAC70"/>
<stop offset="1" stop-color="#EDDC46"/>
</linearGradient>
</defs>
</svg>
