<svg width="32" height="32" viewBox="0 0 32 32" fill="none" xmlns="http://www.w3.org/2000/svg">
<rect width="32" height="32" rx="8" fill="url(#paint0_linear_149_1857)"/>
<path d="M18.794 9.33333C20.8533 9.33333 22 10.52 22 12.5533V19.44C22 21.5067 20.8533 22.6667 18.794 22.6667H13.2067C11.18 22.6667 10 21.5067 10 19.44V12.5533C10 10.52 11.18 9.33333 13.2067 9.33333H18.794ZM13.3867 18.4933C13.1867 18.4733 12.9933 18.5667 12.8867 18.74C12.78 18.9067 12.78 19.1267 12.8867 19.3C12.9933 19.4667 13.1867 19.5667 13.3867 19.54H18.6133C18.8793 19.5133 19.08 19.286 19.08 19.02C19.08 18.7467 18.8793 18.52 18.6133 18.4933H13.3867ZM18.6133 15.4527H13.3867C13.0993 15.4527 12.8667 15.6867 12.8667 15.9733C12.8667 16.26 13.0993 16.4933 13.3867 16.4933H18.6133C18.9 16.4933 19.1333 16.26 19.1333 15.9733C19.1333 15.6867 18.9 15.4527 18.6133 15.4527ZM15.3793 12.4333H13.3867V12.44C13.0993 12.44 12.8667 12.6733 12.8667 12.96C12.8667 13.2467 13.0993 13.48 13.3867 13.48H15.3793C15.6667 13.48 15.9 13.2467 15.9 12.9527C15.9 12.6667 15.6667 12.4333 15.3793 12.4333Z" fill="white"/>
<defs>
<linearGradient id="paint0_linear_149_1857" x1="16" y1="2" x2="34.768" y2="36.1301" gradientUnits="userSpaceOnUse">
<stop stop-color="#1CAC70"/>
<stop offset="1" stop-color="#EDDC46"/>
</linearGradient>
</defs>
</svg>
