<svg width="36" height="36" viewBox="0 0 36 36" fill="none" xmlns="http://www.w3.org/2000/svg">
<path d="M18 33C26.2843 33 33 26.2843 33 18C33 9.71573 26.2843 3 18 3C9.71573 3 3 9.71573 3 18C3 26.2843 9.71573 33 18 33Z" fill="#1CAC70" stroke="black" stroke-width="2" stroke-linecap="round" stroke-linejoin="round"/>
<path d="M15 12H18.75H20.25C21.9068 12 23.25 13.3432 23.25 15C23.25 16.6568 21.9068 18 20.25 18H15V12Z" fill="#1CAC70"/>
<path d="M15 12V18H20.25C21.9068 18 23.25 16.6568 23.25 15C23.25 13.3432 21.9068 12 20.25 12H18.75M15 12H12M15 12V9M15 12H18.75M18.75 12V9" stroke="white" stroke-linecap="round" stroke-linejoin="round"/>
<path d="M15 18H21.75C23.4068 18 24.75 19.3432 24.75 21C24.75 22.6568 23.4068 24 21.75 24H18.75H15V18Z" fill="#1CAC70"/>
<path d="M15 24V18H21.75C23.4068 18 24.75 19.3432 24.75 21C24.75 22.6568 23.4068 24 21.75 24H18.75M15 24V27M15 24H12H18.75M15 24H18.75M18.75 24V27" stroke="white" stroke-linecap="round" stroke-linejoin="round"/>
</svg>
