<svg width="22" height="22" viewBox="0 0 22 22" fill="none" xmlns="http://www.w3.org/2000/svg">
<path d="M1.83203 4.58325C8.34861 8.34159 11.875 13.87 12.832 17.4166C13.8165 13.1358 16.9479 9.22159 20.1654 7.33325" stroke="#9FA8C7" stroke-width="1.2" stroke-linecap="round" stroke-linejoin="round"/>
<path d="M6.41667 8.25C6.16183 13.2862 4.27442 14.9692 2.75 17.4167C6.42858 15.5833 8.26833 12.8333 16.5458 12.8333C20.2235 12.8333 19.7633 15.125 17.4625 15.5833C19.2958 16.0417 19.7615 20.1667 15.6228 17.4167M11 7.33333C11 7.81956 11.1932 8.28588 11.537 8.6297C11.8808 8.97351 12.3471 9.16667 12.8333 9.16667C13.3196 9.16667 13.7859 8.97351 14.1297 8.6297C14.4735 8.28588 14.6667 7.81956 14.6667 7.33333C14.6667 6.8471 14.4735 6.38079 14.1297 6.03697C13.7859 5.69315 13.3196 5.5 12.8333 5.5C12.3471 5.5 11.8808 5.69315 11.537 6.03697C11.1932 6.38079 11 6.8471 11 7.33333Z" stroke="#9FA8C7" stroke-width="1.6" stroke-linecap="round" stroke-linejoin="round"/>
</svg>
