<svg width="26" height="24" viewBox="0 0 26 24" fill="none" xmlns="http://www.w3.org/2000/svg">
<path d="M21.1407 11.6923C22.6045 11.9886 23.7803 12.6838 24.6682 13.7778C25.5561 14.849 26 16.0798 26 17.4701C26 19.4758 25.2561 21.0712 23.7683 22.2564C22.3046 23.4188 20.2529 24 17.6133 24H5.8431V0H17.2174C19.785 0 21.7886 0.558405 23.2284 1.67521C24.6922 2.79202 25.4241 4.30769 25.4241 6.22222C25.4241 7.63533 25.0281 8.80912 24.2363 9.74359C23.4684 10.6781 22.4365 11.3276 21.1407 11.6923ZM0 9.7094H16.0295C17.0374 9.7094 17.8053 9.50427 18.3332 9.09402C18.8851 8.66097 19.1611 8.03419 19.1611 7.21368C19.1611 6.39316 18.8851 5.76638 18.3332 5.33333C17.8053 4.90029 17.0374 4.68376 16.0295 4.68376H0V9.7094ZM16.5335 19.282C17.5653 19.282 18.3572 19.0655 18.9091 18.6325C19.485 18.1766 19.773 17.5271 19.773 16.6838C19.773 15.8405 19.473 15.1795 18.8731 14.7009C18.2972 14.2222 17.4933 13.9829 16.4615 13.9829H0V19.282H16.5335Z" fill="url(#paint0_linear_1_2982)"/>
<defs>
<linearGradient id="paint0_linear_1_2982" x1="13" y1="1.5" x2="26.4554" y2="28.008" gradientUnits="userSpaceOnUse">
<stop stop-color="#1CAC70"/>
<stop offset="1" stop-color="#EDDC46"/>
</linearGradient>
</defs>
</svg>