<svg width="24" height="24" viewBox="0 0 24 24" fill="none" xmlns="http://www.w3.org/2000/svg">
<path fill-rule="evenodd" clip-rule="evenodd" d="M12 19.3636C7.93318 19.3636 4.63636 16.0668 4.63636 12C4.63636 7.93318 7.93318 4.63636 12 4.63636C16.0668 4.63636 19.3636 7.93318 19.3636 12C19.3636 16.0668 16.0668 19.3636 12 19.3636ZM3 12C3 16.9706 7.02944 21 12 21C16.9706 21 21 16.9706 21 12C21 7.02944 16.9706 3 12 3C7.02944 3 3 7.02944 3 12Z" fill="white"/>
<path d="M11.4179 15.8476C11.4298 15.8597 11.4421 15.8713 11.4547 15.8826C11.5218 15.9427 11.5964 15.9898 11.6754 16.0239C11.7749 16.067 11.8847 16.0908 12 16.0908L12.0025 16.0908C12.109 16.0905 12.2107 16.0698 12.304 16.0325C12.4039 15.9926 12.4976 15.9321 12.5786 15.8512L15.8513 12.5785C16.1708 12.2589 16.1708 11.7409 15.8513 11.4214C15.5318 11.1019 15.0137 11.1019 14.6942 11.4214L12.8182 13.2974V8.72719C12.8182 8.27532 12.4519 7.909 12 7.909C11.5481 7.909 11.1818 8.27532 11.1818 8.72719V13.2974L9.30584 11.4214C8.98632 11.1019 8.46828 11.1019 8.14876 11.4214C7.82924 11.7409 7.82924 12.2589 8.14876 12.5785L11.4179 15.8476Z" fill="white"/>
</svg>