<svg width="33" height="32" viewBox="0 0 33 32" fill="none" xmlns="http://www.w3.org/2000/svg">
<rect x="1.35718" y="0.5" width="31" height="31" rx="7.5" stroke="#E7EEEF"/>
<path d="M23 21.3334V12C23 11.2647 22.402 10.6667 21.6667 10.6667H20.3333V9.33337H19V10.6667H15V9.33337H13.6667V10.6667H12.3333C11.598 10.6667 11 11.2647 11 12V21.3334C11 22.0687 11.598 22.6667 12.3333 22.6667H21.6667C22.402 22.6667 23 22.0687 23 21.3334ZM15 20H13.6667V18.6667H15V20ZM15 17.3334H13.6667V16H15V17.3334ZM17.6667 20H16.3333V18.6667H17.6667V20ZM17.6667 17.3334H16.3333V16H17.6667V17.3334ZM20.3333 20H19V18.6667H20.3333V20ZM20.3333 17.3334H19V16H20.3333V17.3334ZM21.6667 14H12.3333V12.6667H21.6667V14Z" fill="#9FA8C7"/>
</svg>
