<svg width="44" height="44" viewBox="0 0 44 44" fill="none" xmlns="http://www.w3.org/2000/svg">
<path d="M21.3337 9.80347C24.3615 9.80347 26.831 12.2306 26.831 15.2187V21.0608H19.3854C18.8518 21.0608 18.4299 21.4755 18.4299 22C18.4299 22.5122 18.8518 22.9391 19.3854 22.9391H26.831V28.769C26.831 31.7572 24.3615 34.1965 21.3089 34.1965H15.2656C12.2253 34.1965 9.75586 31.7694 9.75586 28.7812V15.2309C9.75586 12.2306 12.2377 9.80347 15.278 9.80347H21.3337ZM29.9291 17.7924C30.295 17.4143 30.8926 17.4143 31.2585 17.7802L34.8199 21.3294C35.0029 21.5124 35.1004 21.7441 35.1004 22.0002C35.1004 22.2441 35.0029 22.4881 34.8199 22.6588L31.2585 26.208C31.0756 26.391 30.8317 26.4885 30.5999 26.4885C30.356 26.4885 30.1121 26.391 29.9291 26.208C29.5632 25.8421 29.5632 25.2445 29.9291 24.8786L31.8806 22.9393H26.8312V21.0611H31.8806L29.9291 19.1218C29.5632 18.7559 29.5632 18.1583 29.9291 17.7924Z" fill="#838996"/>
</svg>
