<svg width="12" height="14" viewBox="0 0 12 14" fill="none" xmlns="http://www.w3.org/2000/svg">
<path d="M8.794 0.333328C10.8533 0.333328 12 1.51999 12 3.55333V10.44C12 12.5067 10.8533 13.6667 8.794 13.6667H3.20667C1.18 13.6667 0 12.5067 0 10.44V3.55333C0 1.51999 1.18 0.333328 3.20667 0.333328H8.794ZM3.38667 9.49333C3.18667 9.47333 2.99333 9.56666 2.88667 9.74C2.78 9.90666 2.78 10.1267 2.88667 10.3C2.99333 10.4667 3.18667 10.5667 3.38667 10.54H8.61333C8.87933 10.5133 9.08 10.286 9.08 10.02C9.08 9.74666 8.87933 9.51999 8.61333 9.49333H3.38667ZM8.61333 6.45266H3.38667C3.09933 6.45266 2.86667 6.68666 2.86667 6.97333C2.86667 7.25999 3.09933 7.49333 3.38667 7.49333H8.61333C8.9 7.49333 9.13333 7.25999 9.13333 6.97333C9.13333 6.68666 8.9 6.45266 8.61333 6.45266ZM5.37933 3.43333H3.38667V3.43999C3.09933 3.43999 2.86667 3.67333 2.86667 3.96C2.86667 4.24666 3.09933 4.47999 3.38667 4.47999H5.37933C5.66667 4.47999 5.9 4.24666 5.9 3.95266C5.9 3.66666 5.66667 3.43333 5.37933 3.43333Z" fill="#9FA8C7"/>
</svg>