<svg width="36" height="37" viewBox="0 0 36 37" fill="none" xmlns="http://www.w3.org/2000/svg">
<path d="M6 18.5C6 19.0909 6.1164 19.6761 6.34254 20.2221C6.56869 20.768 6.90016 21.2641 7.31802 21.682C7.73588 22.0998 8.23196 22.4313 8.77792 22.6575C9.32389 22.8836 9.90905 23 10.5 23C11.0909 23 11.6761 22.8836 12.2221 22.6575C12.768 22.4313 13.2641 22.0998 13.682 21.682C14.0998 21.2641 14.4313 20.768 14.6575 20.2221C14.8836 19.6761 15 19.0909 15 18.5C15 17.909 14.8836 17.3239 14.6575 16.7779C14.4313 16.232 14.0998 15.7359 13.682 15.318C13.2641 14.9002 12.768 14.5687 12.2221 14.3425C11.6761 14.1164 11.0909 14 10.5 14C9.90905 14 9.32389 14.1164 8.77792 14.3425C8.23196 14.5687 7.73588 14.9002 7.31802 15.318C6.90016 15.7359 6.56869 16.232 6.34254 16.7779C6.1164 17.3239 6 17.909 6 18.5ZM21 11C21 12.1935 21.4741 13.3381 22.318 14.182C23.1619 15.0259 24.3065 15.5 25.5 15.5C26.6935 15.5 27.8381 15.0259 28.682 14.182C29.5259 13.3381 30 12.1935 30 11C30 9.80652 29.5259 8.66193 28.682 7.81802C27.8381 6.97411 26.6935 6.5 25.5 6.5C24.3065 6.5 23.1619 6.97411 22.318 7.81802C21.4741 8.66193 21 9.80652 21 11ZM21 26C21 27.1935 21.4741 28.3381 22.318 29.182C23.1619 30.0259 24.3065 30.5 25.5 30.5C26.6935 30.5 27.8381 30.0259 28.682 29.182C29.5259 28.3381 30 27.1935 30 26C30 24.8065 29.5259 23.6619 28.682 22.818C27.8381 21.9741 26.6935 21.5 25.5 21.5C24.3065 21.5 23.1619 21.9741 22.318 22.818C21.4741 23.6619 21 24.8065 21 26Z" stroke="black" stroke-width="2" stroke-linecap="round" stroke-linejoin="round"/>
<path d="M15 18.5H19.5M19.5 18.5L22.5 14.75M19.5 18.5L22.5 22.25" stroke="black" stroke-width="2" stroke-linecap="round" stroke-linejoin="round"/>
</svg>
