<svg width="16" height="16" viewBox="0 0 16 16" fill="none" xmlns="http://www.w3.org/2000/svg">
<path d="M2 3.75C2 3.55109 2.07902 3.36032 2.21967 3.21967C2.36032 3.07902 2.55109 3 2.75 3H10.25C10.4489 3 10.6397 3.07902 10.7803 3.21967C10.921 3.36032 11 3.55109 11 3.75C11 3.94891 10.921 4.13968 10.7803 4.28033C10.6397 4.42098 10.4489 4.5 10.25 4.5H2.75C2.55109 4.5 2.36032 4.42098 2.21967 4.28033C2.07902 4.13968 2 3.94891 2 3.75ZM2 11.75C2 11.5511 2.07902 11.3603 2.21967 11.2197C2.36032 11.079 2.55109 11 2.75 11H9.25C9.44891 11 9.63968 11.079 9.78033 11.2197C9.92098 11.3603 10 11.5511 10 11.75C10 11.9489 9.92098 12.1397 9.78033 12.2803C9.63968 12.421 9.44891 12.5 9.25 12.5H2.75C2.55109 12.5 2.36032 12.421 2.21967 12.2803C2.07902 12.1397 2 11.9489 2 11.75ZM2.75 7C2.55109 7 2.36032 7.07902 2.21967 7.21967C2.07902 7.36032 2 7.55109 2 7.75C2 7.94891 2.07902 8.13968 2.21967 8.28033C2.36032 8.42098 2.55109 8.5 2.75 8.5H13.25C13.4489 8.5 13.6397 8.42098 13.7803 8.28033C13.921 8.13968 14 7.94891 14 7.75C14 7.55109 13.921 7.36032 13.7803 7.21967C13.6397 7.07902 13.4489 7 13.25 7H2.75Z" fill="white"/>
</svg>